0
SECTION
2
ENTITIES
0
LINE
8
IPE200
10
0
20
0
30
0
11
2
21
0
31
0
0
LINE
8
IPE200
10
2
20
0
30
0
11
4
21
0
31
0
0
LINE
8
IPE200
10
4
20
0
30
0
11
6
21
0
31
0
0
LINE
8
IPE200
10
6
20
0
30
0
11
8
21
0
31
0
0
LINE
8
IPE200
10
8
20
0
30
0
11
10
21
0
31
0
0
LINE
8
IPE200
10
10
20
0
30
0
11
12
21
0
31
0
0
LINE
8
IPE240
10
0
20
2.2
30
0
11
2
21
2.2
31
0
0
LINE
8
IPE240
10
2
20
2.2
30
0
11
4
21
2.2
31
0
0
LINE
8
IPE240
10
4
20
2.2
30
0
11
6
21
2.2
31
0
0
LINE
8
IPE240
10
6
20
2.2
30
0
11
8
21
2.2
31
0
0
LINE
8
IPE240
10
8
20
2.2
30
0
11
10
21
2.2
31
0
0
LINE
8
IPE240
10
10
20
2.2
30
0
11
12
21
2.2
31
0
0
LINE
8
SHS100
10
0
20
0
30
0
11
0
21
2.2
31
0
0
LINE
8
SHS100
10
2
20
0
30
0
11
2
21
2.2
31
0
0
LINE
8
SHS100
10
4
20
0
30
0
11
4
21
2.2
31
0
0
LINE
8
SHS100
10
6
20
0
30
0
11
6
21
2.2
31
0
0
LINE
8
SHS100
10
8
20
0
30
0
11
8
21
2.2
31
0
0
LINE
8
SHS100
10
10
20
0
30
0
11
10
21
2.2
31
0
0
LINE
8
SHS100
10
12
20
0
30
0
11
12
21
2.2
31
0
0
LINE
8
TREILLIS
10
0
20
0
30
0
11
2
21
2.2
31
0
0
LINE
8
TREILLIS
10
2
20
2.2
30
0
11
4
21
0
31
0
0
LINE
8
TREILLIS
10
4
20
0
30
0
11
6
21
2.2
31
0
0
LINE
8
TREILLIS
10
6
20
2.2
30
0
11
8
21
0
31
0
0
LINE
8
TREILLIS
10
8
20
0
30
0
11
10
21
2.2
31
0
0
LINE
8
TREILLIS
10
10
20
2.2
30
0
11
12
21
0
31
0
0
ENDSEC
0
EOF
